<?xml version="1.0" standalone="no"?>
<!DOCTYPE svg PUBLIC "-//W3C//DTD SVG 20010904//EN"
 "http://www.w3.org/TR/2001/REC-SVG-20010904/DTD/svg10.dtd">
<svg version="1.0" xmlns="http://www.w3.org/2000/svg"
 width="300.000000pt" height="300.000000pt" viewBox="0 0 300.000000 300.000000"
 preserveAspectRatio="xMidYMid meet">
<metadata>
Created by potrace 1.16, written by Peter Selinger 2001-2019
</metadata>
<g transform="translate(0.000000,300.000000) scale(0.046875,-0.046875)"
fill="#000000" stroke="none">
<path d="M2395 5709 c7 -22 84 -155 124 -214 28 -40 26 -67 -4 -103 -48 -57
-132 -53 -199 8 -78 71 -157 130 -173 130 -11 0 -13 -4 -6 -12 5 -7 18 -33 27
-58 10 -25 35 -75 56 -112 28 -49 35 -69 27 -76 -27 -21 -58 -32 -122 -42
l-67 -11 -65 51 c-36 27 -72 50 -79 50 -20 0 7 -70 56 -143 26 -39 38 -66 35
-78 -6 -19 -85 -79 -103 -79 -5 0 -39 20 -75 44 -64 43 -133 73 -143 63 -6 -5
77 -117 124 -169 22 -24 23 -28 9 -48 -38 -54 -48 -55 -148 -5 -50 26 -93 44
-96 42 -7 -7 54 -92 108 -151 49 -54 50 -55 33 -81 -20 -30 -29 -31 -94 -5
-28 11 -60 20 -70 20 -20 0 -20 0 -1 -22 93 -109 101 -122 86 -137 -12 -12
-24 -12 -90 2 -119 27 -126 24 -69 -25 119 -104 109 -90 90 -126 -18 -35 -14
-34 -175 -56 -175 -24 -231 -68 -326 -258 -38 -76 -45 -99 -45 -148 0 -72 27
-110 98 -136 26 -10 48 -19 50 -20 2 -1 -11 -30 -28 -64 -127 -252 -175 -627
-119 -940 51 -283 174 -551 364 -795 77 -99 254 -272 358 -349 l77 -58 0 -92
c0 -79 4 -99 26 -145 65 -130 211 -144 375 -35 37 24 71 50 78 57 9 12 19 12
64 0 53 -15 152 -13 327 5 l75 8 50 -45 c27 -25 89 -82 136 -127 200 -187 418
-299 666 -341 152 -25 262 2 355 88 53 50 68 91 68 186 0 130 -40 247 -175
515 -118 233 -168 350 -197 457 -21 80 -21 83 -4 93 41 23 99 85 122 130 69
136 72 366 10 601 -9 32 -16 59 -16 61 0 2 22 -8 49 -21 75 -37 147 -40 266
-9 55 14 152 30 215 37 63 6 140 19 171 29 48 16 65 17 130 8 47 -6 122 -7
209 -2 209 13 287 10 365 -11 103 -29 259 -27 345 3 73 25 154 81 187 131 59
87 36 158 -71 228 -104 68 -288 173 -303 173 -20 0 -16 28 16 110 49 125 145
513 185 745 52 299 37 589 -34 665 -25 27 -34 30 -87 30 -41 0 -74 -8 -111
-25 -30 -14 -58 -23 -63 -20 -5 3 -46 10 -93 15 -62 8 -104 19 -161 47 -95 44
-204 56 -269 29 -38 -16 -39 -17 -21 -36 23 -26 15 -25 -43 4 -86 43 -150 59
-207 52 -31 -3 -55 -2 -57 4 -2 5 -112 19 -246 30 -272 22 -571 25 -703 6
l-87 -12 -61 76 c-33 41 -90 104 -126 140 -61 61 -65 63 -54 31 10 -27 9 -39
-4 -66 -17 -36 -47 -58 -63 -47 -5 4 -28 32 -50 62 -59 80 -198 224 -202 211
-2 -6 12 -40 32 -76 28 -51 34 -72 29 -97 -8 -46 -31 -68 -67 -68 -25 1 -38
10 -69 50 -40 52 -141 145 -247 226 -90 70 -94 71 -85 43z m544 -362 c31 -96
54 -208 44 -218 -5 -5 -23 -12 -41 -15 -27 -6 -32 -4 -32 13 0 20 -56 139 -90
189 l-21 32 24 5 c12 4 35 20 51 36 16 17 33 28 37 26 4 -3 17 -33 28 -68z
m-309 -14 c64 -98 142 -250 138 -269 -2 -10 -26 -25 -55 -36 l-52 -20 -59 63
c-101 109 -192 214 -192 222 0 4 14 7 31 7 17 0 40 5 52 11 32 17 77 61 77 76
0 26 16 11 60 -54z m-269 -197 c35 -50 85 -113 112 -142 l47 -52 -56 -26 -57
-26 -71 67 c-145 137 -226 215 -226 218 0 1 19 6 43 9 23 4 62 17 87 30 25 13
48 21 51 17 3 -3 35 -46 70 -95z m3119 -54 c51 -51 67 -174 51 -389 -24 -307
-141 -825 -227 -1000 -45 -90 -54 -146 -29 -173 25 -27 33 -25 37 10 l3 30
165 -101 c91 -55 173 -108 183 -117 11 -10 17 -30 17 -57 0 -53 -39 -95 -118
-126 -49 -20 -77 -23 -192 -23 -74 -1 -148 3 -165 8 -27 8 -29 8 -17 -6 20
-25 81 -51 152 -65 l65 -12 -70 5 c-38 3 -106 14 -150 26 -46 12 -110 20 -150
20 -38 0 -151 -1 -250 -3 -152 -2 -195 1 -277 19 -236 51 -436 149 -607 296
-77 67 -78 46 -1 -27 65 -62 116 -127 101 -127 -17 0 -133 82 -207 146 -77 67
-77 67 -71 35 11 -51 86 -213 113 -242 13 -14 24 -28 24 -32 0 -9 -77 20 -129
48 -24 14 -46 23 -49 21 -2 -3 23 -32 55 -65 l59 -61 -44 0 c-24 0 -41 -4 -38
-9 11 -17 141 -63 192 -68 35 -4 68 0 100 11 27 9 79 19 116 23 67 6 85 16 50
27 -20 7 -71 56 -58 56 10 0 154 -93 155 -100 1 -3 -26 -6 -59 -7 -33 -1 -91
-11 -128 -23 -100 -29 -167 -26 -263 11 -44 18 -82 29 -86 25 -4 -4 -2 -26 4
-49 7 -27 8 -60 3 -92 -5 -27 -9 -80 -9 -116 -2 -138 -39 -253 -106 -328 -49
-54 -66 -53 -22 2 68 83 108 195 106 297 l-1 55 -15 -75 c-23 -118 -89 -234
-166 -290 l-32 -24 28 35 c102 128 147 246 146 382 -1 92 -1 92 -13 47 -20
-71 -42 -117 -90 -189 -48 -70 -176 -204 -176 -183 0 7 26 48 58 90 84 111
140 211 168 298 14 42 22 79 19 82 -3 3 -6 3 -8 1 -2 -2 -22 -34 -45 -70 -24
-37 -68 -93 -98 -125 l-56 -59 35 50 c96 139 186 301 187 335 0 13 -1 13 -11
0 -8 -11 -9 -3 -5 33 3 26 4 47 2 47 -2 0 -33 -51 -69 -112 -44 -76 -94 -143
-151 -205 -105 -114 -118 -138 -124 -233 -6 -104 14 -303 34 -346 47 -98 228
-100 337 -4 56 50 84 115 108 250 l19 105 -4 -100 c-5 -119 -31 -198 -84 -257
-106 -118 -329 -129 -386 -20 -46 89 -69 414 -34 478 9 17 59 80 110 140 109
128 154 188 197 265 48 86 37 79 -28 -18 -33 -48 -79 -106 -103 -129 -41 -39
-48 -42 -168 -63 -637 -114 -1029 -312 -1271 -641 -188 -255 -266 -463 -225
-599 9 -30 16 -59 16 -64 0 -10 -49 28 -140 108 -67 60 -85 83 -56 72 20 -8
66 8 66 23 0 6 -10 8 -25 4 -40 -10 -77 20 -73 59 3 30 6 32 46 38 40 5 61 20
62 43 0 6 -5 5 -12 -2 -18 -18 -63 -15 -81 6 -8 9 -18 29 -22 43 -6 25 -4 27
37 33 24 3 66 6 93 6 37 -1 60 5 85 22 50 34 51 54 1 29 -82 -42 -143 -15
-125 56 8 32 14 39 44 46 19 4 46 16 59 26 l25 19 -47 -5 c-59 -7 -97 15 -97
55 0 16 7 37 15 48 20 26 19 44 -3 44 -26 0 -53 -32 -61 -72 -6 -28 -11 -33
-40 -36 -36 -4 -59 11 -72 46 -10 26 -29 21 -29 -7 0 -48 67 -89 116 -71 17 7
27 3 43 -14 18 -19 19 -26 9 -60 -9 -28 -9 -45 -1 -67 14 -36 2 -45 -38 -29
-28 12 -34 24 -42 80 l-3 25 -14 -28 c-11 -22 -11 -35 -2 -61 7 -18 12 -50 12
-72 0 -22 6 -49 14 -59 11 -16 11 -24 0 -51 -8 -18 -11 -41 -7 -51 4 -12 -4
-9 -26 12 -139 129 -203 332 -171 546 39 267 184 525 426 759 180 173 373 308
729 510 110 63 202 115 204 117 3 2 -12 18 -33 35 -108 89 -96 222 26 295 140
85 276 106 650 101 152 -2 279 0 283 4 4 4 -5 19 -19 34 -14 16 -31 41 -37 57
-12 28 -10 32 16 54 24 21 27 28 17 44 -28 44 -15 77 61 157 79 83 93 111 122
249 14 68 70 211 79 202 5 -5 -34 -182 -64 -288 -11 -41 -18 -77 -15 -79 3 -3
6 -3 8 -1 2 2 30 42 62 88 52 72 137 158 184 186 16 9 13 3 -32 -64 -42 -62
-172 -310 -196 -376 -12 -31 -21 -73 -21 -93 0 -39 5 -49 120 -231 29 -47 65
-113 81 -149 57 -127 106 -170 221 -197 28 -7 93 9 103 26 4 5 -5 5 -20 -1
-95 -36 -198 43 -245 187 -29 90 -103 230 -153 290 -34 42 -39 52 -35 88 12
100 171 408 269 519 52 60 74 62 25 2 -82 -101 -218 -356 -231 -432 -14 -86
46 -153 154 -174 30 -5 56 -9 57 -7 2 2 -28 27 -66 56 -39 29 -70 57 -70 61 0
4 31 -5 69 -20 38 -16 97 -36 130 -46 174 -48 514 36 589 147 100 147 160 227
209 277 l55 57 -49 -65 c-27 -36 -66 -91 -87 -123 -41 -63 -141 -266 -134
-273 3 -2 28 40 57 93 181 336 408 560 569 563 24 0 42 -8 62 -28z m-3311
-134 c67 -67 121 -122 121 -123 0 0 -24 -14 -54 -30 l-54 -29 -102 89 c-56 50
-108 95 -116 101 -16 12 -19 34 -5 34 5 0 26 18 47 40 22 21 40 39 41 40 0 0
56 -55 122 -122z m1285 42 c-34 -101 -68 -239 -99 -405 -32 -170 -50 -200 -42
-70 6 96 44 285 75 375 22 63 81 184 87 178 3 -2 -7 -37 -21 -78z m1260 46
c81 -47 111 -130 82 -228 -58 -200 -303 -269 -426 -120 -42 51 -37 61 9 19 86
-78 221 -70 339 19 38 30 37 44 -2 18 -43 -28 -39 -10 5 26 41 32 41 33 37 90
-4 60 -31 110 -70 131 -18 10 -20 9 -15 -5 8 -20 7 -20 -31 0 -17 8 -51 16
-74 16 l-43 1 30 13 30 13 -30 0 c-48 1 -105 -38 -132 -89 -19 -36 -24 -56
-21 -100 3 -30 8 -64 12 -75 6 -16 4 -15 -12 5 -63 77 -13 218 98 278 60 32
148 27 214 -12z m-102 -93 c51 -15 59 -22 69 -51 36 -108 -73 -195 -186 -148
-85 36 -80 163 8 201 41 18 40 18 109 -2z m-2695 -95 c23 -28 98 -96 137 -124
l30 -21 -23 -12 c-18 -10 -26 -10 -39 2 -9 8 -55 38 -102 67 -47 28 -89 55
-94 60 -4 4 2 22 15 39 24 33 41 31 76 -11z m1050 -100 c0 -98 6 -150 30 -254
16 -72 27 -136 25 -142 -6 -18 -40 -14 -46 6 -32 104 -48 395 -25 475 5 20 11
37 12 37 2 0 3 -55 4 -122z m-867 -524 c17 -30 62 -102 101 -160 70 -105 131
-215 123 -223 -9 -9 -67 57 -124 139 -93 137 -149 260 -164 361 l-7 44 20 -53
c11 -30 34 -78 51 -108z m-540 -343 c0 -32 101 -164 199 -260 74 -73 92 -96
78 -99 -55 -12 -232 178 -278 298 -21 55 -25 95 -9 85 6 -3 10 -14 10 -24z
m1766 -983 c-27 -27 -41 -33 -77 -33 -24 -1 -62 -9 -83 -20 -39 -19 -429 -374
-537 -488 -54 -57 -58 -59 -94 -53 -73 14 -85 24 -85 75 0 62 23 163 52 236
22 54 29 62 78 87 148 74 375 148 613 198 174 36 171 36 133 -2z m-986 -613
c5 -49 24 -137 41 -195 34 -116 35 -182 3 -273 -23 -67 -28 -53 -8 24 21 82
14 138 -36 292 -43 131 -47 170 -27 263 12 58 12 58 14 19 2 -22 7 -80 13
-130z m345 -42 c49 -53 95 -232 95 -373 1 -154 32 -262 104 -356 20 -26 34
-49 31 -52 -8 -8 -85 50 -116 87 -42 50 -75 125 -90 201 -13 64 -13 65 -21 30
-9 -38 -2 -183 12 -244 11 -49 5 -63 -34 -84 -25 -14 -56 -17 -164 -16 -73 1
-135 4 -138 7 -3 2 16 34 41 70 50 72 114 204 136 282 8 28 14 88 14 135 0 77
-4 93 -37 165 -39 86 -61 155 -49 155 4 0 30 -7 59 -15 60 -18 105 -54 132
-104 17 -33 19 -34 19 -11 0 33 -23 97 -44 120 -13 14 -13 19 -3 23 23 9 27 8
53 -20z m-195 -176 c48 -120 36 -223 -45 -395 -111 -235 -266 -372 -421 -372
-105 0 -160 55 -169 171 l-5 64 19 -53 c29 -76 55 -108 106 -127 78 -30 158
-1 258 94 104 98 178 213 221 343 32 96 34 194 6 293 -34 119 -22 112 30 -18z"/>
<path d="M5285 4951 c-68 -30 -173 -165 -250 -319 -57 -115 -99 -247 -189
-598 -87 -337 -129 -464 -155 -464 -23 0 -63 45 -94 105 -29 56 -35 38 -12
-37 16 -54 6 -63 -35 -30 -25 20 -36 67 -47 207 l-6 80 -14 -40 c-19 -53 -28
-202 -14 -237 14 -36 67 -68 112 -68 28 0 41 -6 53 -24 29 -45 79 -42 110 7 8
12 36 103 61 202 26 99 53 200 61 225 l14 45 -5 -75 c-8 -114 -33 -245 -65
-340 -26 -78 -31 -113 -11 -81 6 9 19 -2 46 -39 66 -90 200 -176 360 -229 159
-53 284 -51 350 5 30 25 30 25 5 20 -70 -16 -179 -17 -253 -2 -113 22 -117 31
-14 31 80 0 98 3 137 25 73 41 64 56 -67 115 -61 27 -121 59 -133 70 -12 11
-39 56 -60 100 -21 45 -56 103 -78 130 -39 49 -40 50 -23 75 32 45 41 92 52
250 9 150 23 283 36 345 l6 30 9 -25 c9 -23 25 -337 29 -550 l1 -85 21 60 c19
54 21 83 21 300 1 238 1 241 -27 324 -28 82 -28 84 -12 127 19 49 56 84 90 84
20 0 24 -8 36 -82 8 -46 14 -151 14 -235 0 -144 1 -150 15 -115 10 28 14 86
15 232 0 215 -12 282 -62 349 -23 30 -30 33 -62 28 l-36 -6 33 29 c27 26 40
30 87 30 41 0 56 -4 64 -17 10 -17 10 -17 11 -1 1 46 -78 89 -125 69z"/>
<path d="M4626 4306 c-67 -156 -100 -213 -150 -251 -50 -38 -97 -47 -159 -28
-41 12 -66 29 -119 84 -38 38 -68 66 -68 62 0 -14 79 -139 102 -160 112 -105
264 -38 355 156 40 84 106 262 100 268 -3 2 -30 -57 -61 -131z"/>
<path d="M3075 4269 c-55 -5 -140 -20 -189 -34 -163 -47 -234 -102 -244 -190
-9 -86 27 -126 163 -179 156 -62 204 -94 329 -218 92 -91 127 -120 158 -129
84 -22 201 22 288 110 51 52 118 156 107 167 -2 2 -26 -15 -53 -38 -86 -76
-92 -73 -10 6 l79 76 31 -27 c36 -30 86 -53 117 -53 18 0 13 9 -32 58 -29 31
-64 82 -78 112 -23 48 -26 68 -26 157 l0 102 -22 -21 c-38 -35 -57 -100 -50
-169 4 -33 12 -70 17 -82 7 -14 -1 -9 -20 13 -17 19 -34 47 -37 62 -8 38 -44
43 -134 19 -112 -31 -129 -36 -192 -64 -32 -15 -55 -22 -52 -16 15 23 149 78
253 104 61 15 112 31 112 36 0 31 -270 6 -436 -41 -37 -11 -69 -18 -71 -16 -7
6 128 54 197 71 36 8 119 20 185 25 178 16 193 26 75 51 -91 19 -414 -18 -619
-71 -63 -17 -116 -28 -118 -26 -8 8 124 59 212 81 116 30 281 45 490 45 l160
0 16 29 17 29 -62 6 c-87 9 -384 26 -426 25 -19 -1 -80 -6 -135 -10z"/>
<path d="M3960 3901 c0 -5 26 -33 58 -61 l57 -52 -40 6 -40 7 25 -20 c57 -45
170 -52 213 -13 12 10 36 24 52 31 30 12 85 55 85 66 0 3 -18 -4 -41 -15 -86
-45 -193 -35 -306 26 -35 18 -63 30 -63 25z"/>
<path d="M2700 3756 c-30 -18 -113 -66 -185 -106 -531 -300 -828 -560 -993
-870 -74 -139 -133 -331 -131 -428 0 -31 4 -24 20 38 50 189 185 405 368 584
l70 70 26 -28 c19 -21 33 -27 51 -23 17 3 28 -1 35 -14 5 -11 19 -19 30 -19
l20 0 -20 26 c-16 20 -18 31 -10 51 5 14 7 28 5 30 -9 9 -27 -9 -37 -34 -9
-25 -10 -25 -29 -8 -43 39 -29 59 113 165 122 90 381 260 398 260 3 0 9 -13
12 -30 7 -33 56 -70 94 -70 15 0 27 -11 38 -34 18 -38 49 -62 85 -68 35 -5 33
14 -3 37 -46 29 -62 68 -48 115 15 51 34 66 67 51 14 -6 33 -11 43 -11 16 0
18 -8 14 -77 -7 -124 -7 -131 11 -158 24 -36 83 -35 117 2 21 23 22 25 4 18
-50 -20 -73 -18 -90 9 -9 14 -14 33 -10 45 5 16 12 18 45 14 26 -4 40 -2 40 6
0 6 -6 11 -13 11 -22 0 -57 44 -57 71 0 42 11 66 33 77 19 9 15 11 -24 11 -66
1 -99 29 -99 84 0 41 1 42 57 67 31 14 60 27 65 28 4 2 8 -10 8 -27 0 -39 16
-80 42 -108 16 -17 19 -29 13 -60 -21 -129 122 -206 228 -123 l25 20 12 -31
c36 -86 173 -119 267 -64 27 16 32 16 61 1 43 -22 85 -20 108 6 19 21 19 21
-4 15 -33 -8 -89 11 -107 36 -17 25 -20 79 -5 108 7 13 7 19 1 19 -20 0 -42
-61 -39 -108 l2 -47 -53 -13 c-71 -18 -122 -2 -165 51 -27 34 -31 47 -31 98 0
32 -3 59 -6 59 -8 0 -39 -68 -39 -85 0 -22 -59 -55 -97 -55 -48 0 -80 19 -98
57 -24 51 -18 57 58 54 74 -3 92 14 23 21 -85 10 -143 81 -133 166 4 33 12 50
33 67 15 12 23 24 18 27 -13 9 -163 58 -172 57 -4 0 -32 -15 -62 -33z"/>
<path d="M3995 3540 c13 -23 90 -106 175 -191 117 -116 196 -154 385 -184 204
-33 360 -29 508 12 105 29 81 37 -92 29 -262 -12 -516 24 -646 89 -47 24 -162
111 -286 215 -29 25 -49 38 -44 30z"/>
<path d="M2260 3152 c-29 -25 -34 -35 -38 -88 -2 -32 -10 -66 -18 -74 -24 -29
-27 -91 -5 -134 l20 -38 -26 -24 c-24 -22 -28 -23 -47 -10 -15 10 -21 24 -19
46 1 36 -20 37 -25 1 -6 -41 7 -67 43 -84 19 -9 35 -23 35 -32 0 -28 38 -55
78 -55 26 0 45 7 57 20 20 22 10 25 -30 10 -54 -21 -93 25 -66 80 16 33 17 34
71 32 l55 -3 -41 20 c-52 24 -74 55 -74 102 0 63 6 70 46 53 22 -9 48 -12 74
-8 l40 7 0 -36 c0 -58 68 -102 124 -81 27 10 18 24 -17 24 -73 0 -102 78 -50
132 22 23 24 28 9 28 -9 0 -29 -12 -43 -26 -21 -21 -32 -25 -58 -20 -18 4 -45
16 -60 28 -30 23 -30 45 -1 110 20 47 8 55 -34 20z"/>
<path d="M1821 2801 c-41 -41 -35 -137 9 -161 24 -13 32 -74 14 -108 -20 -39
-18 -59 11 -87 29 -30 59 -31 104 -4 39 23 36 34 -5 19 -36 -14 -71 -5 -79 20
-8 27 11 60 36 60 26 0 59 17 59 31 0 6 -5 7 -11 4 -18 -12 -57 4 -64 26 -5
15 -1 25 17 37 l23 17 -34 5 c-21 3 -41 15 -54 32 -19 26 -19 29 -4 70 10 24
17 47 17 51 0 13 -20 7 -39 -12z"/>
<path d="M4564 4898 c27 -65 -23 -112 -70 -67 -24 22 -24 22 -24 2 0 -35 11
-53 41 -68 41 -22 73 -18 108 11 42 35 43 84 2 125 -16 16 -39 29 -50 29 -19
0 -19 -2 -7 -32z"/>
</g>
</svg>
